HIERARCHY
ROOT Hips
{
  OFFSET 129.29 99.348 -264.245
  CHANNELS 6 Xposition Yposition Zposition Zrotation Xrotation Yrotation
  JOINT RightUpLeg
  {
    OFFSET -8.9458 -8.66707 0.101652
    CHANNELS 3 Zrotation Xrotation Yrotation
    JOINT RightLeg
    {
      OFFSET 0 -44.4227 1.3727
      CHANNELS 3 Zrotation Xrotation Yrotation
      JOINT RightFoot
      {
        OFFSET 0.253549 -42.0924 -1.46059
        CHANNELS 3 Zrotation Xrotation Yrotation
        JOINT RightToes
        {
          OFFSET 0.04 -4.41509 8.4991
          CHANNELS 3 Zrotation Xrotation Yrotation
          End Site
          {
            OFFSET -0.08 -0.137448 9.77979
          }
        }
      }
    }
  }
  JOINT Spine
  {
    OFFSET 0 11.8905 0
    CHANNELS 3 Zrotation Xrotation Yrotation
    JOINT Spine1
    {
      OFFSET 0 25.6574 0.127663
      CHANNELS 3 Zrotation Xrotation Yrotation
      JOINT HEad
      {
        OFFSET 0 8.73416 0.011341
        CHANNELS 3 Zrotation Xrotation Yrotation
        End Site
        {
          OFFSET -0.29 12.7742 2.51395
        }
      }
      JOINT LeftShoulder1
      {
        OFFSET 8.99 -0.362252 -0.22
        CHANNELS 3 Zrotation Xrotation Yrotation
        JOINT LeftArm
        {
          OFFSET 10.2827 -0.00338 0.322123
          CHANNELS 3 Zrotation Xrotation Yrotation
          JOINT LeftForeArm
          {
            OFFSET 32.7669 0.099144 -1.42434
            CHANNELS 3 Zrotation Xrotation Yrotation
            JOINT LeftHand
            {
              OFFSET 27.5643 0.085362 1.02216
              CHANNELS 3 Zrotation Xrotation Yrotation
              End Site
              {
                OFFSET 16.7443 -0.6 1.50291
              }
            }
          }
        }
      }
      JOINT RightShoulder
      {
        OFFSET -8.99 -0.362252 -0.22
        CHANNELS 3 Zrotation Xrotation Yrotation
        JOINT RightArm
        {
          OFFSET -10.2827 -0.00338 0.322123
          CHANNELS 3 Zrotation Xrotation Yrotation
          JOINT RightForeArm
          {
            OFFSET -32.8971 0.099144 -1.42434
            CHANNELS 3 Zrotation Xrotation Yrotation
            JOINT RightHand
            {
              OFFSET -27.4921 0.085362 1.02216
              CHANNELS 3 Zrotation Xrotation Yrotation
              End Site
              {
                OFFSET -16.6312 -0.6 1.50291
              }
            }
          }
        }
      }
    }
  }
  JOINT LeftUpLeg
  {
    OFFSET 8.9458 -8.66707 0.101652
    CHANNELS 3 Zrotation Xrotation Yrotation
    JOINT LeftLeg
    {
      OFFSET 0 -44.4227 1.3727
      CHANNELS 3 Zrotation Xrotation Yrotation
      JOINT LeftFoot
      {
        OFFSET -0.253549 -42.0924 -1.46059
        CHANNELS 3 Zrotation Xrotation Yrotation
        JOINT LeftToes
        {
          OFFSET -0.04 -4.41509 8.4991
          CHANNELS 3 Zrotation Xrotation Yrotation
          End Site
          {
            OFFSET 0.08 -0.047448 9.77979
          }
        }
      }
    }
  }
}
MOTION
Frames:	12
Frame Time:	0.0166667
108.523 94.0187 -252.43 11.3676 -12.5917 46.0072 -29.4821 2.80489 12.6357 42.1761 23.0894 -54.835 2.66968 -0.460431 -0.580733 0.0462048 0.000533403 0.662642 6.79463 16.9773 -2.78105 -0.00622943 0.01839 -7.94166e-007 -9.38491 19.3783 13.5585 -3.97569e-016 -7.95139e-016 -3.18055e-015 -143.078 -63.3214 -111.434 -65.5221 63.8651 -30.465 17.1038 9.16056 -14.307 12.3637 13.3394 -1.44183 103.217 -8.26355 70.463 32.185 55.2152 86.8802 15.2932 20.0541 3.42651 24.2572 -14.5619 -24.7164 -15.3067 18.5653 64.6192 -29.8341 -3.15771 -1.58563 -1.18446e-009 1.5602e-007 -4.87131e-009 
109.953 93.4827 -252.375 11.2271 -12.958 45.8357 -29.6605 2.83944 12.6133 42.5422 24.4387 -54.9824 2.80328 -0.313469 -0.652015 0.0462048 0.000533403 0.662642 8.1458 16.5228 -2.99307 -0.00622943 0.01686 -7.94166e-007 -9.57929 19.6355 13.5658 3.97569e-016 -1.98785e-015 -3.18055e-015 -144.243 -64.7787 -112.604 -66.5676 64.0269 -30.5479 17.1706 9.0286 -14.4716 12.0829 13.391 -1.75327 103.284 -7.97845 70.2368 32.4204 55.1001 86.4682 15.5503 20.1134 3.26762 23.9359 -15.7589 -26.0589 -13.5926 20.3694 64.3782 -28.4789 -3.14463 -1.69962 -1.18447e-009 1.5602e-007 -4.87131e-009 
111.475 92.901 -252.347 11.0432 -13.3513 45.6449 -29.9008 2.75893 12.6427 43.061 25.9476 -55.089 3.01079 -0.257161 -0.667263 0.0462048 0.000533403 0.662642 9.435 16.2234 -3.19053 -0.00622943 0.0157159 -7.94166e-007 -9.62352 19.7277 13.5877 -3.18055e-015 0 -6.36111e-015 -145.964 -66.2312 -114.469 -68.1014 63.7553 -30.6182 17.4767 9.4233 -15.0253 11.8186 13.3112 -2.04857 103.372 -7.69311 70.0219 32.7035 54.9975 86.011 15.8083 20.2235 3.08189 23.7861 -16.3638 -27.4105 -12.2677 21.9657 64.4803 -31.3924 -3.08144 -1.81614 -1.18447e-009 1.5602e-007 -4.87132e-009 
113.015 92.3937 -252.35 10.8263 -13.7542 45.4237 -30.0673 2.65027 12.707 43.4356 27.4329 -54.9932 3.2216 -0.170241 -0.701074 0.0462048 0.000533403 0.662642 10.635 16.0579 -3.36795 -0.00622943 0.0145432 -7.94166e-007 -9.54165 19.6815 13.6335 2.78299e-015 -2.38542e-015 -3.18055e-015 -148.207 -67.5793 -116.932 -69.9537 63.2728 -30.5081 17.3389 9.86212 -14.8235 11.5449 13.1379 -2.32264 103.483 -7.41439 69.8188 32.9699 54.916 85.5775 16.0671 20.3608 2.88736 23.507 -17.1263 -28.7262 -11.5834 23.9505 65.0089 -32.0132 -3.05853 -1.87547 -1.18447e-009 1.5602e-007 -4.87131e-009 
114.581 91.9312 -252.389 10.5841 -14.1491 45.1657 -30.2109 2.49849 12.8206 43.7333 28.8853 -54.7464 3.41842 -0.108002 -0.719336 0.0462048 0.000533403 0.662642 11.7184 16.007 -3.52189 -0.00622943 0.013403 -7.94166e-007 -9.35407 19.517 13.7102 -1.59028e-015 0 3.18055e-015 -150.919 -68.7526 -119.891 -71.926 62.6994 -30.3265 17.5219 10.4206 -15.162 11.244 12.9003 -2.57177 103.618 -7.14462 69.6304 33.1771 54.8578 85.2147 16.2954 20.5116 2.704 23.2813 -17.7318 -29.9642 -11.2149 25.846 65.7666 -33.399 -2.97183 -1.93633 -1.18446e-009 1.5602e-007 -4.87131e-009 
116.146 91.5585 -252.469 10.3198 -14.5202 44.8682 -30.282 2.34903 12.9736 43.8203 30.2052 -54.2648 3.56134 -0.0281737 -0.749554 0.0462048 0.000533403 0.662642 12.6628 16.0526 -3.6499 -0.00622943 0.0123562 -7.94166e-007 -9.07787 19.2506 13.821 -1.59028e-015 0 -0 -153.993 -69.696 -123.199 -73.886 62.1242 -30.0601 17.4387 10.9342 -14.9935 10.917 12.621 -2.7892 103.776 -6.88861 69.4657 33.311 54.8205 84.9412 16.4904 20.6422 2.54604 22.9704 -18.4389 -31.1116 -11.333 27.7453 66.81 -32.9889 -2.97863 -1.92996 -1.18446e-009 1.5602e-007 -4.87131e-009 
117.72 91.2505 -252.59 10.0346 -14.8555 44.5335 -30.3173 2.19765 13.1724 43.7414 31.3856 -53.5799 3.64548 0.0292236 -0.766898 0.0462048 0.000533403 0.662642 13.4517 16.1774 -3.75129 -0.00622943 0.0114639 -7.94166e-007 -8.72757 18.8971 13.9659 7.95139e-016 2.38542e-015 3.18055e-015 -157.301 -70.3908 -126.71 -75.7577 61.5885 -29.7337 17.5912 11.4382 -15.2192 10.5758 12.3158 -2.96356 103.952 -6.65699 69.3362 33.3815 54.799 84.7506 16.6456 20.7423 2.41342 22.7324 -19.0281 -32.127 -11.7838 29.3715 68.0269 -32.9227 -2.9389 -1.92469 -1.18446e-009 1.5602e-007 -4.87131e-009 
119.291 91.0238 -252.749 9.73283 -15.1427 44.1655 -30.3092 2.07185 13.4148 43.4513 32.3808 -52.6671 3.65578 0.06465 -0.774444 0.0462048 0.000533403 0.662642 14.0648 16.3679 -3.82205 -0.00622943 0.010787 -7.94166e-007 -8.31466 18.4703 14.142 7.95139e-016 7.95139e-016 9.54166e-015 -160.694 -70.8373 -130.262 -77.5134 61.1191 -29.3387 17.6039 11.8589 -15.1416 10.2292 12.0009 -3.08595 104.146 -6.45864 69.256 33.4127 54.7875 84.6191 16.7811 20.7944 2.29073 22.5605 -19.5411 -32.9794 -12.5443 30.8122 69.3746 -32.8645 -2.88347 -1.91259 -1.18446e-009 1.5602e-007 -4.87132e-009 
120.849 90.8826 -252.95 9.42041 -15.374 43.7766 -30.2609 1.99847 13.7014 42.9232 33.1528 -51.5173 3.58829 0.0785989 -0.772314 0.0462048 0.000533403 0.662642 14.4921 16.597 -3.84925 -0.00622943 0.0103868 -7.94166e-007 -7.85471 18.0056 14.3295 -0 -2.38542e-015 -0 -165.53 -71.6197 -135.232 -79.9545 60.6216 -30.0711 18.664 11.9395 -17.9419 9.86962 11.707 -3.14657 104.371 -6.31279 69.2483 33.4298 54.7767 84.4997 16.9163 20.7979 2.16477 22.3999 -19.9255 -33.668 -13.9685 31.9648 70.9344 -32.4527 -2.8076 -1.87488 -1.18446e-009 1.5602e-007 -4.87132e-009 
122.365 90.8319 -253.198 9.10996 -15.5433 43.3854 -30.1697 1.99024 14.026 42.1538 33.6705 -50.1487 3.4226 0.0726622 -0.763478 0.0462048 0.000533403 0.662642 14.7142 16.8554 -3.82776 -0.00622943 0.0103241 -7.94166e-007 -7.361 17.5251 14.5126 -7.95139e-016 -1.59028e-015 -3.18055e-015 -172.343 -72.6763 -141.603 -84.3506 61.0219 -30.3027 17.6078 13.0854 -17.5852 9.47439 11.4521 -3.13597 104.661 -6.19961 69.3337 33.4362 54.7612 84.3255 17.0644 20.7552 2.04036 22.2518 -20.1612 -34.1562 -15.7796 32.6965 72.5837 -31.6665 -2.73167 -1.81155 -1.18447e-009 1.5602e-007 -4.87131e-009 
123.826 90.8753 -253.496 8.81982 -15.6445 43.0106 -30.0472 2.05437 14.3849 41.1632 33.9162 -48.5979 3.14448 0.0498875 -0.750111 0.0462048 0.000533403 0.662642 14.7165 17.1442 -3.76479 -0.00622943 0.01066 -7.94166e-007 -6.85043 17.0345 14.6849 7.95139e-016 -1.59028e-015 -0 179.708 -73.5573 -148.929 -89.1978 61.5958 -30.7188 19.2977 13.329 -18.5219 9.09548 11.2305 -3.09278 104.952 -6.10542 69.4829 33.4552 54.7437 84.0936 17.2103 20.6833 1.94346 22.1454 -20.2591 -34.4 -17.6739 32.9383 74.1359 -30.5217 -2.67232 -1.73238 -1.18446e-009 1.5602e-007 -4.87131e-009 
125.251 90.9739 -253.802 8.56263 -15.6821 42.6656 -28.587 1.78451 14.1153 40.5965 33.9404 -46.5621 -15.1527 0.673389 -1.19718 0.0462048 0.000533403 0.662642 14.4844 17.4849 -3.68384 -0.00774943 0.01246 -5.09168e-005 -6.32196 16.5137 14.8595 0 0 -0 174.683 -73.6012 -153.477 -92.1122 61.8257 -30.1191 18.6816 14.5364 -13.2731 8.78456 11.0122 -3.05319 105.184 -6.02717 69.6525 33.5471 54.7329 83.8409 17.3338 20.5975 1.88995 22.6108 -19.9451 -33.1882 -19.0769 32.5332 74.1696 -29.0364 -2.70909 -1.67802 -1.18447e-009 1.5602e-007 -4.87131e-009 
